<?xml version="1.0" encoding="utf-8"?>
<!-- Svg Vector Icons : http://www.onlinewebfonts.com/icon -->
<!DOCTYPE svg PUBLIC "-//W3C//DTD SVG 1.1//EN" "http://www.w3.org/Graphics/SVG/1.1/DTD/svg11.dtd">
<svg version="1.1" xmlns="http://www.w3.org/2000/svg" xmlns:xlink="http://www.w3.org/1999/xlink" x="0px" y="0px" viewBox="0 0 1000 1000" enable-background="new 0 0 1000 1000" xml:space="preserve">
<metadata> Svg Vector Icons : http://www.onlinewebfonts.com/icon </metadata>
<g><g transform="translate(0.000000,511.000000) scale(0.100000,-0.100000)"><path d="M2877.2,4611.2c-463.4-227.9-812.9-425.4-835.7-471c-76-136.8-49.4-296.3,57-379.8c57-45.6,132.9-79.8,167.1-79.8c38,0,357.1,144.3,714.1,319.1l645.7,322.9l64.6-170.9c34.2-95,76-163.3,91.2-159.5c11.4,7.6,125.4,64.6,250.7,121.5c125.3,60.8,231.7,114,239.3,117.8c26.6,22.8-239.3,615.4-307.7,695.1c-45.6,49.4-121.6,83.6-182.3,83.6C3724.2,5010,3317.8,4831.5,2877.2,4611.2z"/><path d="M6037.5,4926.4c-72.2-79.8-334.3-672.3-307.7-691.3c7.6-7.6,125.3-64.6,265.9-129.1l254.5-114l64.6,163.3l60.8,167.1l645.7-322.9c357-174.7,676.1-319.1,714.1-319.1c34.2,0,110.2,34.2,167.2,79.8c106.3,83.6,132.9,243.1,57,383.6c-49.4,91.2-1606.7,866-1747.3,866C6159,5010,6079.3,4972,6037.5,4926.4z"/><path d="M4711.8,4022.4c-474.8-72.2-885-292.5-1219.3-660.9c-364.6-398.8-573.5-999-524.2-1500.4c11.4-132.9,30.4-258.3,41.8-277.3c11.4-19,110.2,45.6,216.5,140.6c269.7,235.5,786.3,497.6,1169.9,588.8c619.1,148.1,1181.3,76,1800.4-227.9c208.9-102.6,471-265.9,581.1-360.8c239.3-212.7,254.5-197.5,250.7,284.9c-3.8,717.9-360.9,1356.1-983.8,1743.5C5691.8,3976.8,5133.5,4087,4711.8,4022.4z"/><path d="M4392.8,2013c-452-121.6-778.7-322.9-1177.5-725.5c-509-512.8-793.9-1033.2-957.2-1751.1c-110.2-497.6-110.2-1280.1,0-1777.7C2497.4-3282,3112.7-4129.1,3918-4524.1c300.1-148.2,672.3-265.9,843.3-265.9h87.4l7.6,2415.8C4867.6-117.9,4871.4,49.2,4936,87.2c45.6,30.4,83.6,30.4,132.9,0c60.8-38,64.6-205.1,76-2461.4l7.6-2415.8h87.4c246.9,0,847.1,224.1,1154.7,433c573.6,391.2,1101.6,1177.5,1299.1,1933.4c459.6,1754.9-250.7,3581.9-1667.5,4284.7C5570.3,2085.2,4898,2149.8,4392.8,2013z"/><path d="M693.1,1321.7c-155.7-121.5-136.7-311.5,45.6-478.6C1046.3,558.2,1874.4,72,2049.1,72c30.4,0,102.6,114,159.5,254.5c87.4,201.3,98.8,258.3,57,269.7c-197.5,68.4-752.1,383.6-1006.6,577.4c-167.1,125.3-341.9,227.9-383.6,227.9C829.8,1401.5,750.1,1367.3,693.1,1321.7z"/><path d="M8742,1173.6c-254.5-193.7-809.1-509-1006.6-577.4c-41.8-11.4-26.6-76,60.8-288.7l113.9-269.7l292.5,125.4c315.3,136.7,835.6,471,1063.6,679.9c110.2,106.4,140.6,159.5,140.6,265.9c0,151.9-136.7,292.5-281.1,292.5C9083.8,1401.5,8909.1,1298.9,8742,1173.6z"/><path d="M328.4-1143.5c-106.3-106.3-98.8-307.7,11.4-410.2c83.6-79.8,121.6-83.6,816.7-83.6h729.3v284.9v284.9h-740.7C453.8-1067.5,400.6-1071.3,328.4-1143.5z"/><path d="M8115.2-1352.4v-284.9h733.1c717.9,0,736.9,3.8,816.7,87.4c106.3,114,110.2,303.9,7.6,406.4c-72.2,72.2-125.3,76-816.7,76h-740.7V-1352.4z"/><path d="M1961.8-2795.8C1623.7-2913.6,936.2-3339,677.9-3589.7c-129.2-125.3-125.4-315.3,7.6-429.2c151.9-129.1,246.9-110.1,539.4,113.9c319.1,246.9,657.1,448.2,900.2,539.4c98.8,38,178.5,79.8,178.5,91.2c0,15.2-45.6,136.7-106.3,273.5l-102.6,250.7L1961.8-2795.8z"/><path d="M7800-3000.9c-57-140.5-102.6-265.9-102.6-277.3c0-11.4,79.8-49.4,182.3-87.4c239.3-91.2,577.4-292.5,896.4-539.4c288.7-220.3,379.9-243.1,531.8-121.6c87.4,68.4,102.5,106.4,91.1,235.5c-11.4,144.3-30.4,174.8-292.5,372.3c-322.9,246.9-748.3,501.4-1018,604l-182.3,68.4L7800-3000.9z"/></g></g>
</svg>