<?xml version="1.0" encoding="utf-8"?>
<!-- Svg Vector Icons : http://www.onlinewebfonts.com/icon -->
<!DOCTYPE svg PUBLIC "-//W3C//DTD SVG 1.1//EN" "http://www.w3.org/Graphics/SVG/1.1/DTD/svg11.dtd">
<svg version="1.1" xmlns="http://www.w3.org/2000/svg" xmlns:xlink="http://www.w3.org/1999/xlink" x="0px" y="0px" viewBox="0 0 1000 1000" enable-background="new 0 0 1000 1000" xml:space="preserve">
<metadata> Svg Vector Icons : http://www.onlinewebfonts.com/icon </metadata>
<g><path d="M971.6,548.9c17.4,37.7,22.5,72.5,15.2,104.4l-37,200.1c-1.5,14.5-8.3,27.2-20.7,38.1c-12.3,10.9-26.5,16.3-42.4,16.3H112.4c-16,0-30.1-5.4-42.4-16.3c-12.3-10.9-19.2-23.6-20.7-38.1l-37-200.1c-5.8-36.3-0.7-71.1,15.2-104.4l171.8-406.8c16-33.4,42.1-50,78.3-50h113.1L369,314H223.3l276.2,228.4L778,314H630.1L610.5,92.2h110.9c36.3,0,63.1,16.7,80.5,50L971.6,548.9 M897.6,692.5c1.5-16-2.2-29.7-10.9-41.3c-8.7-11.6-21-17.4-37-17.4H149.4c-16,0-28.3,5.8-37,17.4c-8.7,11.6-12.3,25.4-10.9,41.3l15.2,80.5c1.4,16,8.3,29.4,20.7,40.2s25.7,16.3,40.2,16.3h643.9c16,0,30.1-5.4,42.4-16.3c12.3-10.9,19.2-24.3,20.7-40.2L897.6,692.5"/></g>
</svg>