<?xml version="1.0" encoding="utf-8"?>
<!-- Svg Vector Icons : http://www.onlinewebfonts.com/icon -->
<!DOCTYPE svg PUBLIC "-//W3C//DTD SVG 1.1//EN" "http://www.w3.org/Graphics/SVG/1.1/DTD/svg11.dtd">
<svg version="1.1" xmlns="http://www.w3.org/2000/svg" xmlns:xlink="http://www.w3.org/1999/xlink" x="0px" y="0px" viewBox="0 0 1000 1000" enable-background="new 0 0 1000 1000" xml:space="preserve">
<metadata> Svg Vector Icons : http://www.onlinewebfonts.com/icon </metadata>
<g><path d="M184.6,986.9h630.8 M840.9,990c13.5,0,25.4-12.7,25.4-28.4V531.3c10.2,2.7,14,4.2,21.4,4.2c42.7,0,74.6-51.1,76.8-84.6l1.2-15.8h-1.1c0.1,0,0.1-2.9-0.3-4.6c-0.6-2.4-1.9-4.1-3.4-5.6L854.4,19.9c-1.6-6-6.3-9.9-11.7-9.9H157.3c-5.4,0-10.2,4.1-11.7,10.1L40.7,423.8c-2.5,1.9-4.4,4.3-5.2,7.7c-0.3,1.4-0.2,3.5-0.2,3.5h-0.9l1,15.8c2.2,33.5,34.2,84.4,77,84.4c7.4,0,11.2-1.3,21.4-4v430.3c0,15.7,11.9,28.4,25.4,28.4 M706,435L660,33.6h73.4L809.9,435H706z M448.2,435l15.2-401.4h70.5L548.4,435H448.2z M190.8,435l75.7-401.4h73.9L293.5,435H190.8z M184.6,789.3V497.7c10.2,20.8,33.3,37.8,58.1,37.8c28.1,0,50.7-22,64-46.6c13.3,24.5,36.2,46.6,64.3,46.6c28.1,0,51.2-22,64.5-46.6c13.3,24.5,36.5,46.6,64.6,46.6c28.1,0,51.4-22,64.7-46.6c13.3,24.5,36.5,46.6,64.6,46.6c28.2,0,51.4-22,64.7-46.6c13.3,24.5,35.1,46.6,63.3,46.6c24.7,0,47.9-17,58-37.8v291.6L184.6,789.3L184.6,789.3z"/></g>
</svg>