<?xml version="1.0" encoding="utf-8"?>
<!-- Svg Vector Icons : http://www.onlinewebfonts.com/icon -->
<!DOCTYPE svg PUBLIC "-//W3C//DTD SVG 1.1//EN" "http://www.w3.org/Graphics/SVG/1.1/DTD/svg11.dtd">
<svg version="1.1" xmlns="http://www.w3.org/2000/svg" xmlns:xlink="http://www.w3.org/1999/xlink" x="0px" y="0px" viewBox="0 0 1000 1000" enable-background="new 0 0 1000 1000" xml:space="preserve">
<metadata> Svg Vector Icons : http://www.onlinewebfonts.com/icon </metadata>
<g><g transform="translate(0.000000,511.000000) scale(0.100000,-0.100000)"><path d="M7360.1,4921.1c-574.3-154.6-1050.3-544.8-1298.2-1062.6c-152.2-316.6-184.1-468.7-186.5-863.8c0-292,7.4-370.6,56.4-525.2l58.9-181.6l-525.2-525.2L4942.8,1240l564.4-564.4c309.2-311.7,574.3-564.4,589-564.4c14.7,0,255.2,230.7,537.5,512.9l510.4,510.4l152.2-49.1c188.9-61.3,674.9-83.4,912.9-44.2c589,103.1,1138.7,517.8,1403.7,1062.6c238,485.9,282.2,962,137.4,1462.6l-39.3,135l-704.3-704.3l-701.9-701.9L7728.2,2872l-576.7,576.7l699.4,699.4c382.8,382.8,692.1,701.9,687.1,709.2c-7.4,4.9-73.6,29.5-147.2,51.5c-93.3,29.5-245.4,46.6-490.8,51.5C7600.6,4967.7,7514.7,4962.8,7360.1,4921.1z"/><path d="M1065.4,4086.7l-316.6-316.6l279.8-412.3c154.6-228.2,404.9-591.4,552.2-809.8c149.7-218.4,279.8-400,294.5-400c12.3,0,78.5,54,147.2,122.7l122.7,122.7L3887.6,651L5630-1091.3l-184.1-184.1l-184.1-184.1l1631.9-1631.9c898.2-898.2,1641.8-1631.9,1656.5-1631.9s323.9,299.4,687.1,662.6l662.6,662.6L8268.1-1766.2C7369.9-868,6626.3-134.2,6611.6-134.2c-12.3,0-100.6-76.1-196.3-171.8l-171.8-171.8L4501.1,1264.6L2758.7,3006.9l135,135c81,81,122.7,142.3,110.4,154.6c-24.5,22.1-1546.1,1062.6-1597.6,1092.1C1391.8,4395.9,1239.7,4261,1065.4,4086.7z"/><path d="M3357.5-345.3l-554.6-554.6l-218.4,56.5c-272.4,68.7-694.5,76.1-947.3,14.7C518.2-1101.1-144.4-2249.6,184.4-3346.6l39.3-132.5L928-2774.8l701.9,701.8l576.7-576.7l576.7-576.7l-699.4-699.4l-696.9-697l73.6-27c184.1-73.6,419.6-103.1,709.2-90.8c525.2,19.6,935,201.2,1315.4,579.2c115.3,115.3,250.3,277.3,296.9,358.3c296.9,510.4,368.1,1094.5,198.8,1617.2L3944-2068l559.5,562l562,562l-576.7,576.7l-576.7,576.7L3357.5-345.3z"/></g></g>
</svg>