<?xml version="1.0" encoding="utf-8"?>
<!-- Svg Vector Icons : http://www.onlinewebfonts.com/icon -->
<!DOCTYPE svg PUBLIC "-//W3C//DTD SVG 1.1//EN" "http://www.w3.org/Graphics/SVG/1.1/DTD/svg11.dtd">
<svg version="1.1" xmlns="http://www.w3.org/2000/svg" xmlns:xlink="http://www.w3.org/1999/xlink" x="0px" y="0px" viewBox="0 0 1000 1000" enable-background="new 0 0 1000 1000" xml:space="preserve">
<metadata> Svg Vector Icons : http://www.onlinewebfonts.com/icon </metadata>
<g><path d="M775.6,132.5H224.4c-50.7,0-91.9,41.1-91.9,91.9V255h735v-30.6C867.5,173.6,826.4,132.5,775.6,132.5z M615.2,71.2l13.5,96.7H371.3l13.5-96.7H615.2z M622.5,10h-245c-25.3,0-48.8,20.5-52.3,45.5l-17.9,128.2c-3.5,25,14.3,45.5,39.6,45.5h306.3c25.3,0,43.1-20.5,39.6-45.5L674.7,55.5C671.3,30.5,647.7,10,622.5,10L622.5,10L622.5,10z M790.9,316.3H209.1c-33.7,0-58.7,27.4-55.7,61L203.5,929c3.1,33.5,33.1,61,66.8,61h459.4c33.7,0,63.7-27.4,66.8-61l50.2-551.7C849.7,343.7,824.6,316.3,790.9,316.3z M377.5,867.5h-91.9L255,438.8h122.5V867.5z M561.3,867.5H438.8V438.8h122.5V867.5z M714.4,867.5h-91.9V438.8H745L714.4,867.5z"/></g>
</svg>