<?xml version="1.0" encoding="utf-8"?>
<!-- Svg Vector Icons : http://www.onlinewebfonts.com/icon -->
<!DOCTYPE svg PUBLIC "-//W3C//DTD SVG 1.1//EN" "http://www.w3.org/Graphics/SVG/1.1/DTD/svg11.dtd">
<svg version="1.1" xmlns="http://www.w3.org/2000/svg" xmlns:xlink="http://www.w3.org/1999/xlink" x="0px" y="0px" viewBox="0 0 1000 1000" enable-background="new 0 0 1000 1000" xml:space="preserve">
<metadata> Svg Vector Icons : http://www.onlinewebfonts.com/icon </metadata>
<g><path d="M447.5,11.2l1.2,1.2v106.2c0,1.6-10,3.5-30,5.8c-36.9,10-66.9,20.8-90,32.3c-28.5,13.1-62.3,37.7-101.6,73.9c-73.1,77.7-109.7,167.8-109.7,270.1c0,114.7,47.3,213.2,142,295.5c72.3,57,152.7,85.4,241.2,85.4c99.3,0,187.8-35.8,265.5-107.4c15.4-15.4,28.9-30.8,40.4-46.2h2.3c55.4,34.6,85,53.9,88.9,57.7C866.1,829.6,824.5,870,773,906.9c-86.2,54.7-175.1,82-266.6,82h-12.7c-124.7,0-237.8-46.9-339.4-140.8c-41.6-46.2-69.3-83.1-83.1-110.8C30.4,661.8,10,586.4,10,511v-25.4c0-90,29.2-179.7,87.7-269c34.6-47.7,76.9-89.3,127-124.7c32.3-20,61.2-35.4,86.6-46.2c55.4-20,94.7-30.4,117.7-31.2L447.5,11.2z M500.6,213.2l286.3,286.3l-1.2,1.2H622.9v243.6l-2.3,2.3H378.2l-1.2-2.3V500.6H213.2v-1.2L500.6,213.2z M547.9,11.2C583.3,11.9,633.3,25,698,50.4c123.9,57,210.8,148.9,260.9,275.9C979.6,384,990,438.2,990,489v19.6c0,60.8-14.2,124.3-42.7,190.5c-2.3,0-29.6-16.5-82-49.6c-6.2-3.8-9.6-6.5-10.4-8.1c18.5-46.2,27.7-94.3,27.7-144.3c0-94.7-33.5-180.1-100.4-256.3c-39.2-38.5-70.8-63.5-94.7-75c-25.4-13.9-52.7-25.4-82-34.6c-19.2-4.6-39.6-8.8-61.2-12.7v-105C544.4,11.9,545.6,11.2,547.9,11.2z"/></g>
</svg>